<?xml version="1.0" encoding="UTF-8" standalone="no"?>
<svg
   xmlns:dc="http://purl.org/dc/elements/1.1/"
   xmlns:cc="http://creativecommons.org/ns#"
   xmlns:rdf="http://www.w3.org/1999/02/22-rdf-syntax-ns#"
   xmlns:svg="http://www.w3.org/2000/svg"
   xmlns="http://www.w3.org/2000/svg"
   xmlns:sodipodi="http://sodipodi.sourceforge.net/DTD/sodipodi-0.dtd"
   xmlns:inkscape="http://www.inkscape.org/namespaces/inkscape"
   version="1.1"
   id="svg10"
   width="472.79999"
   height="336"
   viewBox="0 0 472.79999 336"
   sodipodi:docname="izutuLogowhite.svg"
   inkscape:version="1.0.2-2 (e86c870879, 2021-01-15)">
  <metadata
     id="metadata16">
    <rdf:RDF>
      <cc:Work
         rdf:about="">
        <dc:format>image/svg+xml</dc:format>
        <dc:type
           rdf:resource="http://purl.org/dc/dcmitype/StillImage" />
        <dc:title></dc:title>
      </cc:Work>
    </rdf:RDF>
  </metadata>
  <defs
     id="defs14">
    <inkscape:path-effect
       effect="spiro"
       id="path-effect916"
       is_visible="true"
       lpeversion="1" />
    <inkscape:path-effect
       effect="spiro"
       id="path-effect893"
       is_visible="true"
       lpeversion="1" />
  </defs>
  <sodipodi:namedview
     pagecolor="#ffffff"
     bordercolor="#666666"
     borderopacity="1"
     objecttolerance="10"
     gridtolerance="10"
     guidetolerance="10"
     inkscape:pageopacity="0"
     inkscape:pageshadow="2"
     inkscape:window-width="2005"
     inkscape:window-height="1034"
     id="namedview12"
     showgrid="false"
     inkscape:zoom="2.605753"
     inkscape:cx="162.525"
     inkscape:cy="121.94805"
     inkscape:window-x="2758"
     inkscape:window-y="83"
     inkscape:window-maximized="0"
     inkscape:current-layer="layer2" />
  <g
     inkscape:groupmode="layer"
     id="layer2"
     inkscape:label="vector">
    <path
       id="path869"
       style="color:#000000;font-style:normal;font-variant:normal;font-weight:normal;font-stretch:normal;font-size:medium;line-height:normal;font-family:sans-serif;font-variant-ligatures:normal;font-variant-position:normal;font-variant-caps:normal;font-variant-numeric:normal;font-variant-alternates:normal;font-variant-east-asian:normal;font-feature-settings:normal;font-variation-settings:normal;text-indent:0;text-align:start;text-decoration:none;text-decoration-line:none;text-decoration-style:solid;text-decoration-color:#000000;letter-spacing:normal;word-spacing:normal;text-transform:none;writing-mode:lr-tb;direction:ltr;text-orientation:mixed;dominant-baseline:auto;baseline-shift:baseline;text-anchor:start;white-space:normal;shape-padding:0;shape-margin:0;inline-size:0;clip-rule:nonzero;display:inline;overflow:visible;visibility:visible;opacity:1;isolation:auto;mix-blend-mode:normal;color-interpolation:sRGB;color-interpolation-filters:linearRGB;solid-color:#000000;solid-opacity:1;vector-effect:none;fill:#FFFFFF;fill-opacity:0.43529412;fill-rule:nonzero;stroke:#000000;stroke-linecap:butt;stroke-linejoin:miter;stroke-miterlimit:4;stroke-dasharray:none;stroke-dashoffset:0;stroke-opacity:0;color-rendering:auto;image-rendering:auto;shape-rendering:auto;text-rendering:auto;enable-background:accumulate;stop-color:#000000;stop-opacity:1"
       d="M 165.79102 49.574219 L 165.40234 49.888672 L 165.40234 49.890625 L 164.94727 50.09375 L 219.89258 172.80859 L 189.56055 213.96094 L 190.31641 214.61133 L 191.4668 213.46094 L 191.29688 213.29102 L 220.36328 173.85742 L 237.44922 212.01562 L 232.48242 223.09961 C 231.5006 223.00587 230.42938 222.76031 229.26367 222.35938 C 227.75716 221.82155 226.87005 221.52299 226.60156 221.46484 C 226.18392 221.37763 225.73512 221.33398 225.25781 221.33398 C 223.57231 221.33398 222.11107 222.01646 220.87305 223.38281 C 219.63502 224.73463 219.01562 226.56773 219.01562 228.87891 C 219.01562 229.53301 219.10616 230.37617 219.28516 231.4082 L 220.22461 231.4082 C 220.13511 230.68142 220.08984 230.07733 220.08984 229.59766 C 220.08984 228.28944 220.4481 227.26476 221.16406 226.52344 C 221.89495 225.78212 222.88768 225.41211 224.14062 225.41211 C 224.69252 225.41211 225.38541 225.44685 226.2207 225.51953 C 227.056 225.59221 227.80925 225.62891 228.48047 225.62891 C 229.19843 225.62891 230.27841 225.4564 231.54492 225.19336 L 231.25391 225.8418 C 229.52533 226.92765 228.08647 227.96911 226.95898 228.96484 C 224.85583 230.83995 223.2824 232.78813 222.23828 234.80859 C 221.19416 236.81452 220.67188 238.98093 220.67188 241.30664 C 220.67188 241.71341 220.68821 242.11202 220.71875 242.50586 C 215.94724 245.83337 210.32471 247.95492 204.53711 248.52148 C 202.33267 248.73729 200.08608 248.71309 197.93555 248.33008 C 199.96654 246.42997 201.59736 244.87469 202.34766 244.07617 C 203.49619 242.86971 204.58408 241.5534 205.61328 240.12891 L 213.4668 240.12891 L 214.20508 238.51562 L 206.80078 238.51562 C 207.35267 237.71616 207.85987 236.9236 208.32227 236.13867 L 215.43555 236.13867 L 216.28711 234.45898 L 209.35156 234.45898 C 211.63371 230.60702 213.2288 227.98332 214.13867 226.58789 C 215.06346 225.19246 216.19006 223.62319 217.51758 221.87891 L 216.8457 221.33398 C 214.81713 222.2788 213.07966 222.93348 211.63281 223.29688 C 210.20088 223.66027 208.73964 223.8418 207.24805 223.8418 C 205.7117 223.8418 204.2052 223.65332 202.72852 223.27539 C 201.26675 222.89746 199.59621 222.24973 197.7168 221.33398 L 192.05469 227.81055 L 192.77539 228.43359 C 192.59199 228.49799 192.40794 228.56127 192.22852 228.63672 C 190.28971 229.45197 188.63364 230.89779 187.56445 232.70898 C 186.49526 234.52018 186.02901 236.66838 186.25195 238.75977 C 186.46626 240.77012 187.30318 242.67855 188.53906 244.25391 C 189.7737 245.82768 191.39043 247.06614 193.16602 247.94336 C 193.68977 248.20212 194.22743 248.41966 194.77148 248.61719 C 193.68168 250.10934 192.29602 251.76878 190.60156 253.60352 L 191.18359 254.36719 C 193.30166 253.48051 195.20317 252.84668 196.88867 252.46875 C 198.57418 252.07629 200.32674 251.88086 202.14648 251.88086 C 203.98115 251.88086 205.67335 252.06934 207.22461 252.44727 C 208.77587 252.82519 210.51334 253.46597 212.4375 254.36719 L 217.51758 248.30469 L 216.8457 247.67383 L 214.42969 250.48633 C 213.08725 249.83222 211.85698 249.36602 210.73828 249.08984 C 210.27738 248.97452 209.7955 248.88943 209.30078 248.82227 C 213.42067 247.83557 217.3562 246.09394 220.86914 243.72656 C 221.22438 245.88093 222.06653 247.83107 223.40234 249.57031 C 225.83365 252.76817 229.32367 254.36719 233.87305 254.36719 C 236.3491 254.36719 238.63904 253.90794 240.74219 252.99219 C 242.84534 252.07644 245.08148 250.52106 247.45312 248.32617 C 247.57245 250.09953 247.84212 251.35829 248.25977 252.09961 C 248.69233 252.82639 249.55583 253.58226 250.85352 254.36719 L 255.57617 250.74805 L 255.24023 249.46094 C 254.80767 249.89701 254.39758 250.11523 254.00977 250.11523 C 253.50262 250.11523 253.06235 249.83056 252.68945 249.26367 C 252.31655 248.69678 252.12891 247.33878 252.12891 245.1875 L 252.12891 242.51562 C 255.6167 245.87012 259.91045 248.37156 264.53906 249.77734 C 264.68318 249.92652 264.82168 250.08307 264.97266 250.22461 C 266.15102 251.32932 267.44822 252.18638 268.86523 252.79688 C 271.31145 253.84345 273.93603 254.36719 276.74023 254.36719 C 279.61902 254.36719 282.15501 253.8137 284.34766 252.70898 C 286.5403 251.58974 288.33156 250.078 289.71875 248.17383 C 290.58388 246.99644 291.3437 245.43411 292 243.48633 L 291.17188 243.09375 C 290.02334 245.07061 288.77798 246.58928 287.43555 247.65039 C 286.09311 248.69696 284.28871 249.55597 282.02148 250.22461 L 282.02148 248.75195 C 283.32228 247.95029 284.49808 246.93575 285.41797 245.70117 C 286.53249 244.20538 287.26775 242.40974 287.42383 240.5332 C 287.58205 238.63092 287.13596 236.69137 286.16016 235.05078 C 285.19849 233.43398 283.73584 232.13291 282.02148 231.35938 L 282.02148 228.17969 C 283.0656 228.2669 283.95271 228.31055 284.68359 228.31055 C 286.05586 228.31055 287.26448 228.07842 288.30859 227.61328 C 289.36763 227.1336 290.16615 226.48783 290.70312 225.67383 C 291.25502 224.85983 291.68676 223.74785 292 222.33789 L 291.17188 221.76953 C 290.38133 222.85971 289.71862 223.55803 289.18164 223.86328 C 288.65958 224.154 287.89781 224.29883 286.89844 224.29883 C 285.40684 224.29883 282.67663 223.97941 278.70898 223.33984 C 274.74133 222.70027 271.97633 222.38086 270.41016 222.38086 C 268.15784 222.38086 266.15071 222.80146 264.39062 223.64453 C 262.63054 224.47307 261.21262 225.65149 260.13867 227.17773 C 259.33321 228.32605 258.67707 229.93202 258.16992 231.99609 L 258.99805 232.47656 C 259.52011 230.8631 260.13293 229.64798 260.83398 228.83398 C 261.54995 228.01999 262.54074 227.37421 263.80859 226.89453 C 265.07645 226.40032 266.23323 226.18209 267.27734 226.24023 L 270.0957 226.39258 C 268.24612 227.65718 266.81507 228.8128 265.80078 229.85938 C 264.20477 231.53098 262.99616 233.28178 262.17578 235.11328 C 261.3554 236.94478 260.94531 238.86517 260.94531 240.87109 C 260.94531 242.86248 261.31865 244.64304 262.06445 246.21289 C 262.42318 246.95317 262.83161 247.63659 263.2832 248.27344 C 259.09034 246.74172 255.23424 244.2757 252.12891 241.07422 L 252.12891 229.66406 C 252.12891 228.28317 252.27981 227.23569 252.57812 226.52344 C 252.89136 225.81119 253.68793 224.68532 254.9707 223.14453 L 254.27734 222.49023 L 251.79492 224.95312 L 247.0293 221.61719 L 244.21094 224.66797 L 238.54492 212.01367 L 259.00195 166.35547 L 300.09961 217.14258 L 300.87695 216.51367 L 259.46094 165.33203 L 310.33594 51.791016 L 311.45312 50.275391 L 310.46484 50.273438 L 310.00977 50.068359 L 309.91797 50.271484 L 166.04688 49.890625 L 165.79102 49.574219 z M 166.85742 50.892578 L 309.4707 51.271484 L 309.46094 51.291016 L 241.63867 143.30664 L 166.85742 50.892578 z M 167.42773 53.189453 L 241.02539 144.13867 L 220.57617 171.88281 L 167.42773 53.189453 z M 307.53516 55.589844 L 258.75586 164.46094 L 242.28906 144.11133 L 307.53516 55.589844 z M 241.67578 144.94336 L 258.29688 165.48438 L 237.99609 210.79102 L 221.04492 172.93164 L 241.67578 144.94336 z M 237.99609 213.23633 L 243.47266 225.46875 L 241.61328 227.48242 L 242.35156 228.1582 L 243.92969 226.48828 L 245.53711 230.08008 L 245.99414 229.875 L 245.53906 230.08594 L 247.19531 233.68164 C 246.49359 234.07614 245.87551 234.37076 245.37305 234.52539 C 244.82116 234.68528 244.18667 234.76562 243.4707 234.76562 C 242.09843 234.76562 240.64377 234.35892 239.10742 233.54492 L 239.10742 221.33398 L 238.10156 221.33398 C 237.46018 221.94448 236.89262 222.35119 236.40039 222.55469 C 235.50676 222.92208 234.55875 223.11129 233.56055 223.13477 L 237.99609 213.23633 z M 180.75586 221.33398 C 179.90565 221.72645 179.18258 221.98832 178.58594 222.11914 C 177.9893 222.24996 177.29641 222.31445 176.50586 222.31445 C 175.49157 222.31445 174.24621 222.16267 172.76953 221.85742 C 171.97898 221.68299 171.29923 221.5957 170.73242 221.5957 C 168.77843 221.5957 167.22009 222.23453 166.05664 223.51367 C 165.23626 224.42942 164.69888 225.69513 164.44531 227.30859 L 165.29688 227.48242 C 165.44603 226.50853 165.79577 225.79631 166.34766 225.3457 C 166.89955 224.8951 167.69807 224.66992 168.74219 224.66992 C 169.18967 224.66992 169.85238 224.75026 170.73242 224.91016 C 171.62738 225.07005 172.30714 225.15039 172.76953 225.15039 C 173.33634 225.15039 173.86519 225.077 174.35742 224.93164 C 174.84965 224.77175 175.98281 224.27775 177.75781 223.44922 C 175.93806 225.41154 174.70122 227.15539 174.04492 228.68164 C 173.40353 230.19335 173.06037 232.13459 173.01562 234.50391 C 172.71731 234.48937 172.46273 234.48242 172.25391 234.48242 C 170.83689 234.48242 169.60005 234.81573 168.54102 235.48438 C 167.48198 236.13848 166.55617 237.11952 165.76562 238.42773 L 166.41602 238.95117 C 167.31097 238.3116 168.01896 237.891 168.54102 237.6875 C 169.07799 237.46946 169.60028 237.35938 170.10742 237.35938 C 171.33053 237.35938 172.31475 237.83947 173.06055 238.79883 C 174.08975 240.12158 174.60352 242.05391 174.60352 244.59766 C 174.60352 245.86226 174.30562 246.78576 173.70898 247.36719 C 173.11235 247.96315 171.99427 248.30536 170.35352 248.39258 C 168.71276 248.47979 167.45888 248.71886 166.59375 249.11133 C 165.74354 249.50379 164.93845 250.19517 164.17773 251.18359 C 163.59601 251.93945 163.12556 253.00083 162.76758 254.36719 L 163.61914 254.69336 C 163.93238 253.79215 164.40939 253.11662 165.05078 252.66602 C 165.69217 252.20087 166.4756 251.96875 167.40039 251.96875 C 168.32518 251.96875 169.875 252.29511 172.05273 252.94922 C 174.79727 253.79229 176.75914 254.21484 177.9375 254.21484 C 179.0562 254.21484 180.30156 253.85873 181.67383 253.14648 C 183.0461 252.43424 184.17269 251.30641 185.05273 249.76562 C 185.93278 248.21031 186.37305 246.27797 186.37305 243.9668 C 186.37305 243.05105 186.32121 242.1712 186.2168 241.32812 C 186.11239 240.47052 185.77579 238.43505 185.20898 235.22266 C 184.50793 231.23987 184.1582 228.46439 184.1582 226.89453 C 184.1582 225.62993 184.4561 224.62609 185.05273 223.88477 C 185.64937 223.12891 186.7307 222.52678 188.29688 222.07617 L 187.91602 221.33398 C 186.18576 221.63923 184.87347 222.08958 183.97852 222.68555 C 182.78524 223.48501 181.88304 224.5097 181.27148 225.75977 C 180.67485 226.9953 180.37695 228.66077 180.37695 230.75391 C 180.37695 232.9924 180.77852 236.36503 181.58398 240.87109 C 182.2552 244.69398 182.5918 247.28794 182.5918 248.6543 C 182.5918 249.78808 182.24011 250.71158 181.53906 251.42383 C 180.85293 252.12154 180.01109 252.46875 179.01172 252.46875 C 178.31067 252.46875 177.60925 252.28722 176.9082 251.92383 C 176.22207 251.56044 175.00689 250.63889 173.26172 249.15625 C 174.97706 248.80739 176.21389 248.29755 176.97461 247.62891 C 178.00381 246.71316 178.51953 245.4266 178.51953 243.76953 C 178.51953 242.88285 178.30366 241.03086 177.87109 238.21094 C 177.51311 235.97244 177.31889 234.64919 177.28906 234.24219 C 177.19957 233.34097 177.1543 232.28654 177.1543 231.08008 C 177.1543 228.78344 177.45219 227.00289 178.04883 225.73828 C 178.66038 224.47368 179.75023 223.21687 181.31641 221.9668 L 180.75586 221.33398 z M 300.21094 221.33398 C 298.52543 221.33398 297.0642 222.01646 295.82617 223.38281 C 294.58815 224.73463 293.96875 226.56773 293.96875 228.87891 C 293.96875 229.53301 294.05929 230.37617 294.23828 231.4082 L 295.17773 231.4082 C 295.08824 230.68142 295.04297 230.07733 295.04297 229.59766 C 295.04297 228.28944 295.40122 227.26476 296.11719 226.52344 C 296.84807 225.78212 297.83885 225.41211 299.0918 225.41211 C 299.64369 225.41211 300.33853 225.44685 301.17383 225.51953 C 302.00912 225.59221 302.76237 225.62891 303.43359 225.62891 C 304.3733 225.62891 305.7827 225.40373 307.66211 224.95312 C 305.26064 226.36309 303.34404 227.70024 301.91211 228.96484 C 299.80896 230.83995 298.23552 232.78813 297.19141 234.80859 C 296.14729 236.81452 295.625 238.98093 295.625 241.30664 C 295.625 244.44635 296.53377 247.20099 298.35352 249.57031 C 300.78482 252.76817 304.2768 254.36719 308.82617 254.36719 C 311.30222 254.36719 313.59021 253.90794 315.69336 252.99219 C 317.79651 252.07644 320.03461 250.52106 322.40625 248.32617 C 322.52558 250.09953 322.79329 251.35829 323.21094 252.09961 C 323.6435 252.82639 324.50895 253.58226 325.80664 254.36719 L 330.52734 250.74805 L 330.19336 249.46094 C 329.7608 249.89701 329.34875 250.11523 328.96094 250.11523 C 328.45379 250.11523 328.01548 249.83056 327.64258 249.26367 C 327.26968 248.69678 327.08203 247.33878 327.08203 245.1875 L 327.08203 229.66406 C 327.08203 228.28317 327.23098 227.23569 327.5293 226.52344 C 327.84253 225.81119 328.64105 224.68532 329.92383 223.14453 L 329.23047 222.49023 L 326.74609 224.95312 L 321.98047 221.61719 L 316.56641 227.48242 L 317.30469 228.1582 L 319.87891 225.43359 L 322.40625 227.24219 L 322.40625 233.54492 C 321.58587 234.0246 320.89298 234.35096 320.32617 234.52539 C 319.77428 234.68528 319.13979 234.76562 318.42383 234.76562 C 317.05156 234.76562 315.59689 234.35892 314.06055 233.54492 L 314.06055 221.33398 L 313.05469 221.33398 C 312.4133 221.94448 311.84574 222.35119 311.35352 222.55469 C 310.39889 222.94715 309.3845 223.14453 308.31055 223.14453 C 307.10235 223.14453 305.73823 222.88266 304.2168 222.35938 C 302.71028 221.82155 301.82318 221.52299 301.55469 221.46484 C 301.13704 221.37763 300.68825 221.33398 300.21094 221.33398 z M 238.10156 223.49219 L 238.10156 250.90039 C 237.41543 251.00214 236.75928 251.05273 236.13281 251.05273 C 234.85004 251.05273 233.73853 250.9079 232.79883 250.61719 C 231.85912 250.32647 230.85129 249.82358 229.77734 249.11133 C 232.01474 247.52694 233.56651 246.24928 234.43164 245.27539 C 235.02828 244.60675 235.43837 243.92927 235.66211 243.24609 C 235.82619 242.70827 235.9082 241.88792 235.9082 240.7832 L 235.9082 230.66602 C 235.9082 228.39845 236.03549 226.87977 236.28906 226.10938 C 236.55755 225.33898 237.16186 224.46608 238.10156 223.49219 z M 313.05469 223.49219 L 313.05469 250.90039 C 312.36855 251.00214 311.71241 251.05273 311.08594 251.05273 C 309.80316 251.05273 308.69166 250.9079 307.75195 250.61719 C 306.81225 250.32647 305.80442 249.82358 304.73047 249.11133 C 306.96787 247.52694 308.51964 246.24928 309.38477 245.27539 C 309.9814 244.60675 310.39149 243.92927 310.61523 243.24609 C 310.77931 242.70827 310.86133 241.88792 310.86133 240.7832 L 310.86133 230.66602 C 310.86133 228.39845 310.98862 226.87977 311.24219 226.10938 C 311.51068 225.33898 312.11498 224.46608 313.05469 223.49219 z M 214.20508 224.125 C 211.49037 226.62514 209.33624 228.70426 207.74023 230.36133 C 206.56187 231.58233 205.37492 232.94727 204.18164 234.45898 L 196.17188 234.45898 L 195.34375 236.13867 L 202.92969 236.13867 L 201.36328 238.51562 L 194.1582 238.51562 L 193.35352 240.12891 L 200.24414 240.12891 C 198.13705 243.58853 196.55279 246.06915 195.42969 247.68555 C 194.82271 247.47889 194.22437 247.24938 193.64844 246.96484 C 192.00301 246.15193 190.51901 245.00845 189.39844 243.58008 C 188.27911 242.15329 187.5261 240.42841 187.33594 238.64453 C 187.13843 236.79183 187.55674 234.86816 188.50391 233.26367 C 189.45107 231.65918 190.93286 230.36479 192.65039 229.64258 C 194.36792 228.92037 196.33147 228.76547 198.14062 229.21094 C 199.94978 229.65641 201.61494 230.70547 202.80078 232.14258 L 203.64258 231.44727 C 202.30396 229.82501 200.44263 228.6552 198.40039 228.15234 C 197.37927 227.90091 196.3209 227.81835 195.27539 227.90039 C 194.47958 227.96284 193.69209 228.12146 192.93359 228.37305 L 195.63477 225.21484 C 196.87279 225.86895 197.95412 226.31235 198.87891 226.54492 C 200.13185 226.85017 201.5045 227.00391 202.99609 227.00391 C 204.87551 227.00391 206.65824 226.79263 208.34375 226.37109 C 210.02926 225.94956 211.9826 225.20064 214.20508 224.125 z M 235.64062 224.71289 C 233.99987 226.57346 232.84309 228.07129 232.17188 229.20508 C 231.78406 229.85918 231.53801 230.44047 231.43359 230.94922 C 231.3441 231.45797 231.29883 232.5491 231.29883 234.2207 L 231.29883 240.69531 C 231.29883 243.00649 231.14331 244.61246 230.83008 245.51367 C 230.53176 246.41489 229.88218 247.38203 228.88281 248.41406 C 227.68953 247.28028 226.82408 246.14746 226.28711 245.01367 C 225.62127 243.59116 225.26026 242.01939 225.16602 240.31836 C 225.59696 239.91644 226.01993 239.50607 226.42969 239.08203 L 226.03711 238.70117 L 226.49414 238.90625 L 231.75 227.17773 C 232.86501 226.37588 234.14697 225.55511 235.64062 224.71289 z M 310.59375 224.71289 C 308.95299 226.57346 307.79622 228.07129 307.125 229.20508 C 306.73718 229.85918 306.49113 230.44047 306.38672 230.94922 C 306.29722 231.45797 306.25195 232.5491 306.25195 234.2207 L 306.25195 240.69531 C 306.25195 243.00649 306.09644 244.61246 305.7832 245.51367 C 305.48488 246.41489 304.83531 247.38203 303.83594 248.41406 C 302.64266 247.28028 301.77721 246.14746 301.24023 245.01367 C 300.4646 243.3566 300.07617 241.50961 300.07617 239.47461 C 300.07617 237.1925 300.53153 235.11339 301.44141 233.23828 C 302.35128 231.36318 303.50805 229.8078 304.91016 228.57227 C 306.32717 227.33673 308.22211 226.05017 310.59375 224.71289 z M 244.92578 225.43359 L 247.45312 227.24219 L 247.45312 231.84766 L 246.45117 229.67188 L 246.44922 229.66602 L 244.67383 225.70117 L 244.92578 225.43359 z M 271.41602 226.50195 L 272.60156 226.61133 L 272.60156 232.46484 C 272.19228 232.77933 271.80632 233.12408 271.45508 233.50391 L 272.20703 234.19922 C 272.33302 234.06298 272.46628 233.93389 272.60156 233.80664 L 272.60156 242.89844 C 272.60156 244.59911 272.4828 245.72499 272.24414 246.27734 C 272.00549 246.8297 271.34082 247.54887 270.25195 248.43555 C 266.82128 245.86273 265.10742 242.54265 265.10742 238.47266 C 265.10742 236.0888 265.73995 233.76866 267.00781 231.51562 C 267.94752 229.84402 269.41727 228.17356 271.41602 226.50195 z M 277.23242 227.37305 C 278.32129 227.59108 279.57517 227.79541 280.99219 227.98438 L 280.99219 230.97266 C 280.40643 230.79022 279.80506 230.65988 279.19531 230.5957 C 278.54364 230.52711 277.88478 230.53185 277.23242 230.60156 L 277.23242 227.37305 z M 230.07227 228.47852 L 225.65625 238.33398 L 225.64648 238.32422 C 225.48742 238.48883 225.32067 238.64543 225.1582 238.80664 C 225.23992 236.78876 225.66918 234.92632 226.48828 233.23828 C 227.39816 231.36318 228.55493 229.8078 229.95703 228.57227 C 229.99249 228.54135 230.03621 228.50949 230.07227 228.47852 z M 277.81836 231.57812 C 278.89586 231.52694 279.97718 231.70965 280.99219 232.07227 L 280.99219 248.16992 C 280.89905 248.22163 280.8112 248.28271 280.7168 248.33203 C 278.57005 249.45371 276.13962 249.94306 273.66992 250.02539 C 272.96999 249.80001 272.15866 249.48247 271.14844 249.00195 C 273.65432 247.05417 275.32486 245.62973 276.16016 244.72852 C 276.62255 244.20523 276.91192 243.74098 277.03125 243.33398 C 277.16549 242.91245 277.23242 241.93836 277.23242 240.41211 L 277.23242 231.62891 C 277.42688 231.60555 277.62258 231.58743 277.81836 231.57812 z M 282.02148 232.52539 C 283.35553 233.22652 284.50947 234.27993 285.2793 235.57422 C 286.14363 237.02739 286.54445 238.76425 286.4043 240.44922 C 286.26585 242.11376 285.60618 243.73436 284.59766 245.08789 C 283.88989 246.03778 283.00514 246.8531 282.02148 247.5332 L 282.02148 232.52539 z M 239.10742 234.7207 C 240.62885 235.44749 242.04677 235.8125 243.35938 235.8125 C 244.06043 235.8125 244.69491 235.73911 245.26172 235.59375 C 245.82853 235.44839 246.55817 235.15677 247.45312 234.7207 L 247.45312 239.80273 C 245.99136 239.11956 244.64889 238.77734 243.42578 238.77734 C 242.14301 238.77734 240.70343 239.11956 239.10742 239.80273 L 239.10742 234.7207 z M 314.06055 234.7207 C 315.58198 235.44749 316.99989 235.8125 318.3125 235.8125 C 319.01355 235.8125 319.64608 235.73911 320.21289 235.59375 C 320.7797 235.44839 321.51129 235.15677 322.40625 234.7207 L 322.40625 239.80273 C 320.94448 239.11956 319.60202 238.77734 318.37891 238.77734 C 317.09613 238.77734 315.65656 239.11956 314.06055 239.80273 L 314.06055 234.7207 z M 243.4043 239.7793 C 244.61249 239.7793 245.96153 240.14431 247.45312 240.87109 L 247.45312 246.86523 C 245.8422 248.01355 244.41771 248.87256 243.17969 249.43945 C 241.95658 249.99181 240.59902 250.41936 239.10742 250.72461 L 239.10742 241.00195 C 240.00238 240.52228 240.75563 240.20091 241.36719 240.04102 C 241.99366 239.86659 242.67341 239.7793 243.4043 239.7793 z M 318.35742 239.7793 C 319.56562 239.7793 320.91465 240.14431 322.40625 240.87109 L 322.40625 246.86523 C 320.79532 248.01355 319.37084 248.87256 318.13281 249.43945 C 316.9097 249.99181 315.55214 250.41936 314.06055 250.72461 L 314.06055 241.00195 C 314.95551 240.52228 315.70876 240.20091 316.32031 240.04102 C 316.94678 239.86659 317.62654 239.7793 318.35742 239.7793 z M 196.94922 249.24609 C 197.89708 249.45656 198.85978 249.59424 199.83008 249.66992 C 198.11256 250.11842 196.35651 250.71251 194.56055 251.4668 C 195.53163 250.57614 196.14562 249.99269 196.94922 249.24609 z M 280.99219 249.33203 L 280.99219 250.48633 C 279.6945 250.64622 278.71685 250.72461 278.06055 250.72461 C 277.7113 250.72461 277.35756 250.70745 277 250.67969 C 278.37943 250.40462 279.72319 249.97004 280.99219 249.33203 z " />
  </g>
</svg>
